<?xml version="1.0" encoding="utf-8"?>
<svg xmlns="http://www.w3.org/2000/svg" style="margin: auto; background: none; display: block; shape-rendering: auto;" width="277" height="59" preserveAspectRatio="xMidYMid">
<style type="text/css">
  text {
    text-anchor: middle; font-size: 19px; opacity: 0;
  }
</style>
<g style="transform-origin: 138.5px 29.5px; transform: scale(0.904762);">
<g transform="translate(138.5,29.5)">
  <g transform="translate(0,0)"><g class="path" style="transform: scale(0.91); transform-origin: -140.73px -1.0415px; animation: 0.510204s linear -0.326212s infinite normal forwards running breath-f8752b0a-b2cc-413b-9538-1eddd8eaa4ca;"><path d="M9.37 0L1.68 0L1.93-5.10L1.68-14.49L9.55-14.49L9.32-12.24L4.60-12.24L4.47-8.53L8.67-8.53L8.44-6.30L4.39-6.30L4.37-5.46L4.52-2.23L9.60-2.23L9.37 0" fill="#1d0e0b" stroke="none" stroke-width="none" transform="translate(-146.37002563476562,6.203499383926392)" style="fill: rgb(29, 14, 11);"></path></g><g class="path" style="transform: scale(0.91); transform-origin: -130.6px 0.913499px; animation: 0.510204s linear -0.315689s infinite normal forwards running breath-f8752b0a-b2cc-413b-9538-1eddd8eaa4ca;"><path d="M17.64-5.31L17.64-5.31Q17.64-6.76 17.39-7.25L17.39-7.25L17.39-7.25Q17.14-7.73 16.21-7.73L16.21-7.73L16.21-7.73Q15.29-7.73 14.11-6.99L14.11-6.99L14.11-5.46L14.34-0.53L11.53 0L11.78-5.10L11.78-5.10Q11.70-7.92 11.32-10.14L11.32-10.14L13.86-10.69L13.86-10.69Q14.01-9.47 14.07-8.32L14.07-8.32L14.07-8.32Q14.39-8.74 14.78-9.15L14.78-9.15L14.78-9.15Q15.18-9.55 16.04-10.07L16.04-10.07L16.04-10.07Q16.91-10.58 17.86-10.58L17.86-10.58L17.86-10.58Q18.82-10.58 19.47-9.84L19.47-9.84L19.47-9.84Q20.12-9.09 20.12-7.81L20.12-7.81L19.99-5.46L20.22-0.42L17.39 0.11L17.64-5.31" fill="#1d0e0b" stroke="none" stroke-width="none" transform="translate(-146.37002563476562,6.203499383926392)" style="fill: rgb(119, 64, 35);"></path></g><g class="path" style="transform: scale(0.91); transform-origin: -120.185px 0.8235px; animation: 0.510204s linear -0.305166s infinite normal forwards running breath-f8752b0a-b2cc-413b-9538-1eddd8eaa4ca;"><path d="M24.63 0L24.63 0Q23.39 0 22.61-0.79L22.61-0.79L22.61-0.79Q21.82-1.58 21.82-2.91L21.82-2.91L21.82-2.91Q21.82-4.24 23.04-5.22L23.04-5.22L23.04-5.22Q24.26-6.20 26.00-6.20L26.00-6.20L27.43-6.20L27.43-6.55L27.43-6.55Q27.43-7.58 27.01-7.96L27.01-7.96L27.01-7.96Q26.59-8.34 25.43-8.34L25.43-8.34L25.43-8.34Q24.95-8.34 24.29-8.14L24.29-8.14L24.29-8.14Q23.63-7.94 22.81-7.52L22.81-7.52L22.20-9.18L22.20-9.18Q23.10-9.81 24.39-10.31L24.39-10.31L24.39-10.31Q25.68-10.82 26.52-10.82L26.52-10.82L26.52-10.82Q29.82-10.82 29.82-7.62L29.82-7.62L29.82-3.51L29.82-3.51Q29.82-2.33 30.55-0.88L30.55-0.88L28.33 0.06L28.33 0.06Q27.80-0.95 27.55-1.74L27.55-1.74L27.55-1.74Q26.40 0 24.63 0L24.63 0zM25.52-2.14L25.52-2.14L25.52-2.14Q26.36-2.14 27.43-3.00L27.43-3.00L27.43-4.41L27.43-4.41Q26.31-4.66 25.62-4.66L25.62-4.66L25.62-4.66Q24.30-4.66 24.30-3.49L24.30-3.49L24.30-3.49Q24.30-2.88 24.63-2.51L24.63-2.51L24.63-2.51Q24.97-2.14 25.52-2.14" fill="#1d0e0b" stroke="none" stroke-width="none" transform="translate(-146.37002563476562,6.203499383926392)" style="fill: rgb(216, 140, 81);"></path></g><g class="path" style="transform: scale(0.91); transform-origin: -109.62px -1.9215px; animation: 0.510204s linear -0.294643s infinite normal forwards running breath-f8752b0a-b2cc-413b-9538-1eddd8eaa4ca;"><path d="M37.95-10.61L37.95-10.61L37.95-10.61Q39.35-10.61 40.24-9.39L40.24-9.39L40.24-9.39Q41.12-8.17 41.12-6.26L41.12-6.26L41.12-6.26Q41.12-3.51 39.68-1.75L39.68-1.75L39.68-1.75Q38.24 0 35.95 0L35.95 0L35.95 0Q34.90 0 32.42-0.34L32.42-0.34L32.63-5.10L32.38-15.73L35.26-16.25L34.99-10.84L34.99-8.57L34.99-8.57Q35.22-8.90 35.55-9.28L35.55-9.28L35.55-9.28Q35.89-9.66 36.60-10.13L36.60-10.13L36.60-10.13Q37.32-10.61 37.95-10.61zM37.13-7.88L37.13-7.88L37.13-7.88Q36.16-7.88 34.99-7.29L34.99-7.29L34.99-5.46L35.11-2.37L35.11-2.37Q35.99-2.27 36.77-2.27L36.77-2.27L36.77-2.27Q38.79-2.27 38.79-5.07L38.79-5.07L38.79-5.07Q38.79-7.88 37.13-7.88" fill="#1d0e0b" stroke="none" stroke-width="none" transform="translate(-146.37002563476562,6.203499383926392)" style="fill: rgb(29, 14, 11);"></path></g><g class="path" style="transform: scale(0.91); transform-origin: -102.07px -1.9215px; animation: 0.510204s linear -0.28412s infinite normal forwards running breath-f8752b0a-b2cc-413b-9538-1eddd8eaa4ca;"><path d="M42.86-15.73L45.74-16.25L45.47-5.46L45.70-0.53L42.86 0L43.11-5.10L42.86-15.73" fill="#1d0e0b" stroke="none" stroke-width="none" transform="translate(-146.37002563476562,6.203499383926392)" style="fill: rgb(119, 64, 35);"></path></g><g class="path" style="transform: scale(0.91); transform-origin: -94.765px 0.908499px; animation: 0.510204s linear -0.273597s infinite normal forwards running breath-f8752b0a-b2cc-413b-9538-1eddd8eaa4ca;"><path d="M51.95-2.14L51.95-2.14L51.95-2.14Q52.56-2.14 53.24-2.46L53.24-2.46L53.24-2.46Q53.91-2.77 54.29-3.09L54.29-3.09L54.66-3.40L55.63-2.23L55.63-2.23Q55.42-1.87 54.98-1.41L54.98-1.41L54.98-1.41Q54.54-0.95 54.09-0.62L54.09-0.62L54.09-0.62Q53.63-0.29 52.89-0.03L52.89-0.03L52.89-0.03Q52.14 0.23 51.35 0.23L51.35 0.23L51.35 0.23Q49.64 0.23 48.57-1.06L48.57-1.06L48.57-1.06Q47.50-2.35 47.50-4.39L47.50-4.39L47.50-4.39Q47.50-6.95 48.99-8.88L48.99-8.88L48.99-8.88Q50.48-10.82 52.48-10.82L52.48-10.82L52.48-10.82Q54.01-10.82 54.86-9.95L54.86-9.95L54.86-9.95Q55.71-9.09 55.71-7.54L55.71-7.54L55.71-7.54Q55.71-6.62 55.40-5.44L55.40-5.44L54.98-5.00L49.73-4.52L49.73-4.52Q50.09-2.14 51.95-2.14zM51.95-8.65L51.95-8.65L51.95-8.65Q51.03-8.65 50.40-7.91L50.40-7.91L50.40-7.91Q49.77-7.16 49.67-6.01L49.67-6.01L53.24-6.45L53.24-6.45Q53.30-6.93 53.30-7.25L53.30-7.25L53.30-7.25Q53.30-8.65 51.95-8.65" fill="#1d0e0b" stroke="none" stroke-width="none" transform="translate(-146.37002563476562,6.203499383926392)" style="fill: rgb(216, 140, 81);"></path></g><g class="path" style="transform: scale(0.91); transform-origin: -82.9px -1.9215px; animation: 0.510204s linear -0.263074s infinite normal forwards running breath-f8752b0a-b2cc-413b-9538-1eddd8eaa4ca;"><path d="M67.03-16.07L66.38-13.67L66.38-13.67Q65.60-13.86 64.97-13.86L64.97-13.86L64.97-13.86Q64.34-13.86 64.06-13.48L64.06-13.48L64.06-13.48Q63.78-13.10 63.78-12.16L63.78-12.16L63.76-10.16L66.02-10.16L65.79-8.44L63.76-8.44L63.74-5.46L63.97-0.53L61.13 0L61.38-5.10L61.30-8.44L59.91-8.44L60.14-10.16L61.26-10.16L61.24-11.76L61.24-11.76Q61.24-13.63 62.39-14.94L62.39-14.94L62.39-14.94Q63.55-16.25 65.20-16.25L65.20-16.25L65.20-16.25Q66.09-16.25 67.03-16.07L67.03-16.07" fill="#1d0e0b" stroke="none" stroke-width="none" transform="translate(-146.37002563476562,6.203499383926392)" style="fill: rgb(29, 14, 11);"></path></g><g class="path" style="transform: scale(0.91); transform-origin: -74.885px 0.888499px; animation: 0.510204s linear -0.252551s infinite normal forwards running breath-f8752b0a-b2cc-413b-9538-1eddd8eaa4ca;"><path d="M69.66 0L69.66 0L69.66 0Q68.52 0 67.82-0.75L67.82-0.75L67.82-0.75Q67.12-1.49 67.12-2.71L67.12-2.71L67.24-5.12L67.01-10.16L69.83-10.69L69.55-4.31L69.55-4.31Q69.55-3.40 69.88-2.98L69.88-2.98L69.88-2.98Q70.20-2.56 70.92-2.56L70.92-2.56L70.92-2.56Q71.63-2.56 72.89-3.28L72.89-3.28L72.89-4.54L72.66-10.06L75.50-10.58L75.24-5.33L75.26-3.61L75.26-3.61Q75.26-2.27 75.96-0.90L75.96-0.90L73.77 0.06L73.77 0.06Q73.08-1.30 72.93-2.12L72.93-2.12L72.93-2.12Q71.04 0 69.66 0" fill="#1d0e0b" stroke="none" stroke-width="none" transform="translate(-146.37002563476562,6.203499383926392)" style="fill: rgb(119, 64, 35);"></path></g><g class="path" style="transform: scale(0.91); transform-origin: -67.085px -1.9215px; animation: 0.510204s linear -0.242028s infinite normal forwards running breath-f8752b0a-b2cc-413b-9538-1eddd8eaa4ca;"><path d="M77.85-15.73L80.72-16.25L80.45-5.46L80.68-0.53L77.85 0L78.10-5.10L77.85-15.73" fill="#1d0e0b" stroke="none" stroke-width="none" transform="translate(-146.37002563476562,6.203499383926392)" style="fill: rgb(216, 140, 81);"></path></g><g class="path" style="transform: scale(0.91); transform-origin: -61.77px -1.9215px; animation: 0.510204s linear -0.231505s infinite normal forwards running breath-f8752b0a-b2cc-413b-9538-1eddd8eaa4ca;"><path d="M83.16-15.73L86.04-16.25L85.76-5.46L86.00-0.53L83.16 0L83.41-5.10L83.16-15.73" fill="#1d0e0b" stroke="none" stroke-width="none" transform="translate(-146.37002563476562,6.203499383926392)" style="fill: rgb(29, 14, 11);"></path></g><g class="path" style="transform: scale(0.91); transform-origin: -51.89px 0.908499px; animation: 0.510204s linear -0.220982s infinite normal forwards running breath-f8752b0a-b2cc-413b-9538-1eddd8eaa4ca;"><path d="M94.88-1.95L94.88-1.95L94.88-1.95Q95.97-1.95 95.97-2.92L95.97-2.92L95.97-2.92Q95.97-3.26 95.50-3.55L95.50-3.55L95.50-3.55Q95.03-3.84 94.34-4.14L94.34-4.14L94.34-4.14Q93.66-4.43 92.98-4.80L92.98-4.80L92.98-4.80Q92.30-5.17 91.82-5.82L91.82-5.82L91.82-5.82Q91.35-6.47 91.35-7.31L91.35-7.31L91.35-7.31Q91.35-8.71 92.59-9.77L92.59-9.77L92.59-9.77Q93.83-10.82 95.45-10.82L95.45-10.82L95.45-10.82Q96.20-10.82 96.93-10.64L96.93-10.64L96.93-10.64Q97.65-10.46 98.32-10.08L98.32-10.08L96.92-7.52L96.92-7.52Q96.77-7.64 96.54-7.83L96.54-7.83L96.54-7.83Q96.31-8.02 95.67-8.33L95.67-8.33L95.67-8.33Q95.03-8.63 94.53-8.63L94.53-8.63L94.53-8.63Q94.04-8.63 93.78-8.41L93.78-8.41L93.78-8.41Q93.51-8.19 93.51-7.80L93.51-7.80L93.51-7.80Q93.51-7.41 94.24-7.02L94.24-7.02L94.24-7.02Q94.96-6.64 95.82-6.31L95.82-6.31L95.82-6.31Q96.68-5.99 97.41-5.24L97.41-5.24L97.41-5.24Q98.13-4.49 98.13-3.47L98.13-3.47L98.13-3.47Q98.13-2.00 96.93-0.88L96.93-0.88L96.93-0.88Q95.72 0.23 94.14 0.23L94.14 0.23L94.14 0.23Q93.14 0.23 92.26-0.21L92.26-0.21L92.26-0.21Q91.39-0.65 91.01-1.09L91.01-1.09L90.64-1.53L92.30-3.47L92.30-3.47Q92.42-3.30 92.65-3.05L92.65-3.05L92.65-3.05Q92.88-2.79 93.57-2.37L93.57-2.37L93.57-2.37Q94.25-1.95 94.88-1.95" fill="#1d0e0b" stroke="none" stroke-width="none" transform="translate(-146.37002563476562,6.203499383926392)" style="fill: rgb(119, 64, 35);"></path></g><g class="path" style="transform: scale(0.91); transform-origin: -43.345px 0.908499px; animation: 0.510204s linear -0.210459s infinite normal forwards running breath-f8752b0a-b2cc-413b-9538-1eddd8eaa4ca;"><path d="M103.59-8.09L103.59-8.09L103.59-8.09Q102.67-8.09 102.17-7.42L102.17-7.42L102.17-7.42Q101.66-6.76 101.66-5.40L101.66-5.40L101.66-5.40Q101.66-4.03 102.18-3.20L102.18-3.20L102.18-3.20Q102.69-2.37 103.68-2.37L103.68-2.37L103.68-2.37Q104.18-2.37 104.66-2.69L104.66-2.69L104.66-2.69Q105.15-3.00 105.40-3.32L105.40-3.32L105.63-3.65L106.68-2.56L106.68-2.56Q106.62-2.46 106.52-2.27L106.52-2.27L106.52-2.27Q106.43-2.08 106.06-1.60L106.06-1.60L106.06-1.60Q105.69-1.11 105.28-0.75L105.28-0.75L105.28-0.75Q104.87-0.38 104.22-0.07L104.22-0.07L104.22-0.07Q103.57 0.23 102.86 0.23L102.86 0.23L102.86 0.23Q101.28 0.23 100.30-1.05L100.30-1.05L100.30-1.05Q99.31-2.33 99.31-4.39L99.31-4.39L99.31-4.39Q99.31-6.95 100.80-8.88L100.80-8.88L100.80-8.88Q102.29-10.82 104.29-10.82L104.29-10.82L104.29-10.82Q104.90-10.82 105.50-10.64L105.50-10.64L105.50-10.64Q106.11-10.46 106.74-10.08L106.74-10.08L105.27-7.50L105.27-7.50Q104.52-8.09 103.59-8.09" fill="#1d0e0b" stroke="none" stroke-width="none" transform="translate(-146.37002563476562,6.203499383926392)" style="fill: rgb(216, 140, 81);"></path></g><g class="path" style="transform: scale(0.91); transform-origin: -35.34px 0.858499px; animation: 0.510204s linear -0.199936s infinite normal forwards running breath-f8752b0a-b2cc-413b-9538-1eddd8eaa4ca;"><path d="M107.84-10.14L107.84-10.14L110.38-10.69L110.38-10.69Q110.57-9.07 110.63-7.62L110.63-7.62L110.63-7.62Q112.54-10.58 114.22-10.58L114.22-10.58L113.99-7.31L113.99-7.31Q112.77-7.31 112.07-7.09L112.07-7.09L112.07-7.09Q111.36-6.87 110.63-6.22L110.63-6.22L110.63-5.46L110.86-0.53L108.05 0L108.30-5.10L108.30-5.10Q108.21-7.92 107.84-10.14" fill="#1d0e0b" stroke="none" stroke-width="none" transform="translate(-146.37002563476562,6.203499383926392)" style="fill: rgb(29, 14, 11);"></path></g><g class="path" style="transform: scale(0.91); transform-origin: -27.395px 0.908499px; animation: 0.510204s linear -0.189413s infinite normal forwards running breath-f8752b0a-b2cc-413b-9538-1eddd8eaa4ca;"><path d="M119.32-2.14L119.32-2.14L119.32-2.14Q119.93-2.14 120.60-2.46L120.60-2.46L120.60-2.46Q121.28-2.77 121.65-3.09L121.65-3.09L122.03-3.40L123.00-2.23L123.00-2.23Q122.79-1.87 122.35-1.41L122.35-1.41L122.35-1.41Q121.91-0.95 121.45-0.62L121.45-0.62L121.45-0.62Q121.00-0.29 120.26-0.03L120.26-0.03L120.26-0.03Q119.51 0.23 118.71 0.23L118.71 0.23L118.71 0.23Q117.01 0.23 115.94-1.06L115.94-1.06L115.94-1.06Q114.87-2.35 114.87-4.39L114.87-4.39L114.87-4.39Q114.87-6.95 116.36-8.88L116.36-8.88L116.36-8.88Q117.85-10.82 119.85-10.82L119.85-10.82L119.85-10.82Q121.38-10.82 122.23-9.95L122.23-9.95L122.23-9.95Q123.08-9.09 123.08-7.54L123.08-7.54L123.08-7.54Q123.08-6.62 122.77-5.44L122.77-5.44L122.35-5.00L117.10-4.52L117.10-4.52Q117.45-2.14 119.32-2.14zM119.32-8.65L119.32-8.65L119.32-8.65Q118.40-8.65 117.77-7.91L117.77-7.91L117.77-7.91Q117.14-7.16 117.03-6.01L117.03-6.01L120.60-6.45L120.60-6.45Q120.67-6.93 120.67-7.25L120.67-7.25L120.67-7.25Q120.67-8.65 119.32-8.65" fill="#1d0e0b" stroke="none" stroke-width="none" transform="translate(-146.37002563476562,6.203499383926392)" style="fill: rgb(119, 64, 35);"></path></g><g class="path" style="transform: scale(0.91); transform-origin: -18.025px 0.908499px; animation: 0.510204s linear -0.17889s infinite normal forwards running breath-f8752b0a-b2cc-413b-9538-1eddd8eaa4ca;"><path d="M128.69-2.14L128.69-2.14L128.69-2.14Q129.30-2.14 129.97-2.46L129.97-2.46L129.97-2.46Q130.64-2.77 131.02-3.09L131.02-3.09L131.40-3.40L132.36-2.23L132.36-2.23Q132.15-1.87 131.71-1.41L131.71-1.41L131.71-1.41Q131.27-0.95 130.82-0.62L130.82-0.62L130.82-0.62Q130.37-0.29 129.62-0.03L129.62-0.03L129.62-0.03Q128.88 0.23 128.08 0.23L128.08 0.23L128.08 0.23Q126.38 0.23 125.31-1.06L125.31-1.06L125.31-1.06Q124.24-2.35 124.24-4.39L124.24-4.39L124.24-4.39Q124.24-6.95 125.73-8.88L125.73-8.88L125.73-8.88Q127.22-10.82 129.21-10.82L129.21-10.82L129.21-10.82Q130.75-10.82 131.60-9.95L131.60-9.95L131.60-9.95Q132.45-9.09 132.45-7.54L132.45-7.54L132.45-7.54Q132.45-6.62 132.13-5.44L132.13-5.44L131.71-5.00L126.46-4.52L126.46-4.52Q126.82-2.14 128.69-2.14zM128.69-8.65L128.69-8.65L128.69-8.65Q127.76-8.65 127.13-7.91L127.13-7.91L127.13-7.91Q126.50-7.16 126.40-6.01L126.40-6.01L129.97-6.45L129.97-6.45Q130.03-6.93 130.03-7.25L130.03-7.25L130.03-7.25Q130.03-8.65 128.69-8.65" fill="#1d0e0b" stroke="none" stroke-width="none" transform="translate(-146.37002563476562,6.203499383926392)" style="fill: rgb(216, 140, 81);"></path></g><g class="path" style="transform: scale(0.91); transform-origin: -7.87503px 0.913499px; animation: 0.510204s linear -0.168367s infinite normal forwards running breath-f8752b0a-b2cc-413b-9538-1eddd8eaa4ca;"><path d="M140.36-5.31L140.36-5.31Q140.36-6.76 140.11-7.25L140.11-7.25L140.11-7.25Q139.86-7.73 138.94-7.73L138.94-7.73L138.94-7.73Q138.01-7.73 136.84-6.99L136.84-6.99L136.84-5.46L137.07-0.53L134.25 0L134.51-5.10L134.51-5.10Q134.42-7.92 134.04-10.14L134.04-10.14L136.58-10.69L136.58-10.69Q136.73-9.47 136.79-8.32L136.79-8.32L136.79-8.32Q137.11-8.74 137.51-9.15L137.51-9.15L137.51-9.15Q137.91-9.55 138.77-10.07L138.77-10.07L138.77-10.07Q139.63-10.58 140.58-10.58L140.58-10.58L140.58-10.58Q141.54-10.58 142.19-9.84L142.19-9.84L142.19-9.84Q142.84-9.09 142.84-7.81L142.84-7.81L142.72-5.46L142.95-0.42L140.11 0.11L140.36-5.31" fill="#1d0e0b" stroke="none" stroke-width="none" transform="translate(-146.37002563476562,6.203499383926392)" style="fill: rgb(29, 14, 11);"></path></g><g class="path" style="transform: scale(0.91); transform-origin: 4.76498px -0.296501px; animation: 0.510204s linear -0.157844s infinite normal forwards running breath-f8752b0a-b2cc-413b-9538-1eddd8eaa4ca;"><path d="M148.09-10.16L149.31-10.16L149.31-12.45L152.15-13.00L151.87-10.16L154.41-10.16L154.18-8.44L151.79-8.44L151.68-4.05L151.68-4.05Q151.68-3.07 151.87-2.74L151.87-2.74L151.87-2.74Q152.06-2.42 152.57-2.42L152.57-2.42L152.57-2.42Q153.07-2.42 153.91-2.65L153.91-2.65L154.04-1.16L154.04-1.16Q152.65 0 151.60 0L151.60 0L151.60 0Q150.55 0 149.88-0.77L149.88-0.77L149.88-0.77Q149.21-1.53 149.21-2.77L149.21-2.77L149.33-5.12L149.31-8.44L147.86-8.44L148.09-10.16" fill="#1d0e0b" stroke="none" stroke-width="none" transform="translate(-146.37002563476562,6.203499383926392)" style="fill: rgb(119, 64, 35);"></path></g><g class="path" style="transform: scale(0.91); transform-origin: 13.42px 0.908499px; animation: 0.510204s linear -0.147321s infinite normal forwards running breath-f8752b0a-b2cc-413b-9538-1eddd8eaa4ca;"><path d="M155.32-4.39L155.32-4.39Q155.32-7.08 156.77-8.95L156.77-8.95L156.77-8.95Q158.21-10.82 160.16-10.82L160.16-10.82L160.16-10.82Q162.10-10.82 163.18-9.55L163.18-9.55L163.18-9.55Q164.26-8.29 164.26-6.22L164.26-6.22L164.26-6.22Q164.26-3.44 162.87-1.61L162.87-1.61L162.87-1.61Q161.47 0.23 159.35 0.23L159.35 0.23L159.35 0.23Q157.61 0.23 156.46-1.08L156.46-1.08L156.46-1.08Q155.32-2.39 155.32-4.39L155.32-4.39zM161.91-5.12L161.91-5.12L161.91-5.12Q161.91-8.17 159.83-8.17L159.83-8.17L159.83-8.17Q157.67-8.17 157.67-5.31L157.67-5.31L157.67-5.31Q157.67-3.82 158.28-2.98L158.28-2.98L158.28-2.98Q158.89-2.14 159.88-2.14L159.88-2.14L159.88-2.14Q160.88-2.14 161.40-2.91L161.40-2.91L161.40-2.91Q161.91-3.68 161.91-5.12" fill="#1d0e0b" stroke="none" stroke-width="none" transform="translate(-146.37002563476562,6.203499383926392)" style="fill: rgb(216, 140, 81);"></path></g><g class="path" style="transform: scale(0.91); transform-origin: 25.705px 0.908499px; animation: 0.510204s linear -0.136798s infinite normal forwards running breath-f8752b0a-b2cc-413b-9538-1eddd8eaa4ca;"><path d="M172.47-1.95L172.47-1.95L172.47-1.95Q173.57-1.95 173.57-2.92L173.57-2.92L173.57-2.92Q173.57-3.26 173.09-3.55L173.09-3.55L173.09-3.55Q172.62-3.84 171.94-4.14L171.94-4.14L171.94-4.14Q171.26-4.43 170.57-4.80L170.57-4.80L170.57-4.80Q169.89-5.17 169.42-5.82L169.42-5.82L169.42-5.82Q168.95-6.47 168.95-7.31L168.95-7.31L168.95-7.31Q168.95-8.71 170.18-9.77L170.18-9.77L170.18-9.77Q171.42-10.82 173.04-10.82L173.04-10.82L173.04-10.82Q173.80-10.82 174.52-10.64L174.52-10.64L174.52-10.64Q175.25-10.46 175.92-10.08L175.92-10.08L174.51-7.52L174.51-7.52Q174.36-7.64 174.13-7.83L174.13-7.83L174.13-7.83Q173.90-8.02 173.26-8.33L173.26-8.33L173.26-8.33Q172.62-8.63 172.13-8.63L172.13-8.63L172.13-8.63Q171.63-8.63 171.37-8.41L171.37-8.41L171.37-8.41Q171.11-8.19 171.11-7.80L171.11-7.80L171.11-7.80Q171.11-7.41 171.83-7.02L171.83-7.02L171.83-7.02Q172.56-6.64 173.42-6.31L173.42-6.31L173.42-6.31Q174.28-5.99 175.00-5.24L175.00-5.24L175.00-5.24Q175.73-4.49 175.73-3.47L175.73-3.47L175.73-3.47Q175.73-2.00 174.52-0.88L174.52-0.88L174.52-0.88Q173.31 0.23 171.74 0.23L171.74 0.23L171.74 0.23Q170.73 0.23 169.86-0.21L169.86-0.21L169.86-0.21Q168.99-0.65 168.61-1.09L168.61-1.09L168.23-1.53L169.89-3.47L169.89-3.47Q170.02-3.30 170.25-3.05L170.25-3.05L170.25-3.05Q170.48-2.79 171.16-2.37L171.16-2.37L171.16-2.37Q171.84-1.95 172.47-1.95" fill="#1d0e0b" stroke="none" stroke-width="none" transform="translate(-146.37002563476562,6.203499383926392)" style="fill: rgb(29, 14, 11);"></path></g><g class="path" style="transform: scale(0.91); transform-origin: 33.855px -0.296501px; animation: 0.510204s linear -0.126276s infinite normal forwards running breath-f8752b0a-b2cc-413b-9538-1eddd8eaa4ca;"><path d="M177.18-10.16L178.40-10.16L178.40-12.45L181.23-13.00L180.96-10.16L183.50-10.16L183.27-8.44L180.87-8.44L180.77-4.05L180.77-4.05Q180.77-3.07 180.96-2.74L180.96-2.74L180.96-2.74Q181.15-2.42 181.65-2.42L181.65-2.42L181.65-2.42Q182.15-2.42 182.99-2.65L182.99-2.65L183.12-1.16L183.12-1.16Q181.73 0 180.68 0L180.68 0L180.68 0Q179.63 0 178.96-0.77L178.96-0.77L178.96-0.77Q178.29-1.53 178.29-2.77L178.29-2.77L178.42-5.12L178.40-8.44L176.95-8.44L177.18-10.16" fill="#1d0e0b" stroke="none" stroke-width="none" transform="translate(-146.37002563476562,6.203499383926392)" style="fill: rgb(119, 64, 35);"></path></g><g class="path" style="transform: scale(0.91); transform-origin: 42.315px 0.8235px; animation: 0.510204s linear -0.115753s infinite normal forwards running breath-f8752b0a-b2cc-413b-9538-1eddd8eaa4ca;"><path d="M187.13 0L187.13 0Q185.89 0 185.10-0.79L185.10-0.79L185.10-0.79Q184.32-1.58 184.32-2.91L184.32-2.91L184.32-2.91Q184.32-4.24 185.54-5.22L185.54-5.22L185.54-5.22Q186.75-6.20 188.50-6.20L188.50-6.20L189.92-6.20L189.92-6.55L189.92-6.55Q189.92-7.58 189.50-7.96L189.50-7.96L189.50-7.96Q189.08-8.34 187.93-8.34L187.93-8.34L187.93-8.34Q187.45-8.34 186.78-8.14L186.78-8.14L186.78-8.14Q186.12-7.94 185.30-7.52L185.30-7.52L184.70-9.18L184.70-9.18Q185.60-9.81 186.89-10.31L186.89-10.31L186.89-10.31Q188.18-10.82 189.02-10.82L189.02-10.82L189.02-10.82Q192.32-10.82 192.32-7.62L192.32-7.62L192.32-3.51L192.32-3.51Q192.32-2.33 193.05-0.88L193.05-0.88L190.83 0.06L190.83 0.06Q190.30-0.95 190.05-1.74L190.05-1.74L190.05-1.74Q188.90 0 187.13 0L187.13 0zM188.01-2.14L188.01-2.14L188.01-2.14Q188.85-2.14 189.92-3.00L189.92-3.00L189.92-4.41L189.92-4.41Q188.81-4.66 188.12-4.66L188.12-4.66L188.12-4.66Q186.80-4.66 186.80-3.49L186.80-3.49L186.80-3.49Q186.80-2.88 187.13-2.51L187.13-2.51L187.13-2.51Q187.47-2.14 188.01-2.14" fill="#1d0e0b" stroke="none" stroke-width="none" transform="translate(-146.37002563476562,6.203499383926392)" style="fill: rgb(216, 140, 81);"></path></g><g class="path" style="transform: scale(0.91); transform-origin: 51.47px 0.858499px; animation: 0.510204s linear -0.10523s infinite normal forwards running breath-f8752b0a-b2cc-413b-9538-1eddd8eaa4ca;"><path d="M194.65-10.14L194.65-10.14L197.19-10.69L197.19-10.69Q197.38-9.07 197.44-7.62L197.44-7.62L197.44-7.62Q199.35-10.58 201.03-10.58L201.03-10.58L200.80-7.31L200.80-7.31Q199.58-7.31 198.88-7.09L198.88-7.09L198.88-7.09Q198.18-6.87 197.44-6.22L197.44-6.22L197.44-5.46L197.67-0.53L194.86 0L195.11-5.10L195.11-5.10Q195.03-7.92 194.65-10.14" fill="#1d0e0b" stroke="none" stroke-width="none" transform="translate(-146.37002563476562,6.203499383926392)" style="fill: rgb(29, 14, 11);"></path></g><g class="path" style="transform: scale(0.91); transform-origin: 58.635px -0.296501px; animation: 0.510204s linear -0.0947066s infinite normal forwards running breath-f8752b0a-b2cc-413b-9538-1eddd8eaa4ca;"><path d="M201.96-10.16L203.18-10.16L203.18-12.45L206.01-13.00L205.74-10.16L208.28-10.16L208.05-8.44L205.65-8.44L205.55-4.05L205.55-4.05Q205.55-3.07 205.74-2.74L205.74-2.74L205.74-2.74Q205.93-2.42 206.43-2.42L206.43-2.42L206.43-2.42Q206.93-2.42 207.77-2.65L207.77-2.65L207.90-1.16L207.90-1.16Q206.51 0 205.46 0L205.46 0L205.46 0Q204.41 0 203.74-0.77L203.74-0.77L203.74-0.77Q203.07-1.53 203.07-2.77L203.07-2.77L203.20-5.12L203.18-8.44L201.73-8.44L201.96-10.16" fill="#1d0e0b" stroke="none" stroke-width="none" transform="translate(-146.37002563476562,6.203499383926392)" style="fill: rgb(119, 64, 35);"></path></g><g class="path" style="transform: scale(0.91); transform-origin: 69.325px -0.296501px; animation: 0.510204s linear -0.0841837s infinite normal forwards running breath-f8752b0a-b2cc-413b-9538-1eddd8eaa4ca;"><path d="M212.65-10.16L213.86-10.16L213.86-12.45L216.70-13.00L216.43-10.16L218.97-10.16L218.74-8.44L216.34-8.44L216.24-4.05L216.24-4.05Q216.24-3.07 216.43-2.74L216.43-2.74L216.43-2.74Q216.62-2.42 217.12-2.42L217.12-2.42L217.12-2.42Q217.62-2.42 218.46-2.65L218.46-2.65L218.59-1.16L218.59-1.16Q217.20 0 216.15 0L216.15 0L216.15 0Q215.10 0 214.43-0.77L214.43-0.77L214.43-0.77Q213.76-1.53 213.76-2.77L213.76-2.77L213.89-5.12L213.86-8.44L212.42-8.44L212.65-10.16" fill="#1d0e0b" stroke="none" stroke-width="none" transform="translate(-146.37002563476562,6.203499383926392)" style="fill: rgb(216, 140, 81);"></path></g><g class="path" style="transform: scale(0.91); transform-origin: 78.49px -1.8665px; animation: 0.510204s linear -0.0736607s infinite normal forwards running breath-f8752b0a-b2cc-413b-9538-1eddd8eaa4ca;"><path d="M226.63-5.31L226.63-5.31Q226.63-6.76 226.38-7.25L226.38-7.25L226.38-7.25Q226.13-7.73 225.20-7.73L225.20-7.73L225.20-7.73Q224.28-7.73 223.10-6.99L223.10-6.99L223.10-5.46L223.34-0.53L220.50 0L220.75-5.10L220.50-15.73L223.38-16.25L223.10-10.82L223.10-8.36L223.10-8.36Q223.42-8.78 223.82-9.18L223.82-9.18L223.82-9.18Q224.22-9.58 225.06-10.08L225.06-10.08L225.06-10.08Q225.90-10.58 226.85-10.58L226.85-10.58L226.85-10.58Q227.81-10.58 228.46-9.84L228.46-9.84L228.46-9.84Q229.11-9.09 229.11-7.81L229.11-7.81L228.98-5.46L229.22-0.42L226.38 0.11L226.63-5.31" fill="#1d0e0b" stroke="none" stroke-width="none" transform="translate(-146.37002563476562,6.203499383926392)" style="fill: rgb(29, 14, 11);"></path></g><g class="path" style="transform: scale(0.91); transform-origin: 88.585px 0.908499px; animation: 0.510204s linear -0.0631378s infinite normal forwards running breath-f8752b0a-b2cc-413b-9538-1eddd8eaa4ca;"><path d="M235.31-2.14L235.31-2.14L235.31-2.14Q235.91-2.14 236.59-2.46L236.59-2.46L236.59-2.46Q237.26-2.77 237.64-3.09L237.64-3.09L238.01-3.40L238.98-2.23L238.98-2.23Q238.77-1.87 238.33-1.41L238.33-1.41L238.33-1.41Q237.89-0.95 237.44-0.62L237.44-0.62L237.44-0.62Q236.99-0.29 236.24-0.03L236.24-0.03L236.24-0.03Q235.49 0.23 234.70 0.23L234.70 0.23L234.70 0.23Q233.00 0.23 231.92-1.06L231.92-1.06L231.92-1.06Q230.85-2.35 230.85-4.39L230.85-4.39L230.85-4.39Q230.85-6.95 232.34-8.88L232.34-8.88L232.34-8.88Q233.84-10.82 235.83-10.82L235.83-10.82L235.83-10.82Q237.36-10.82 238.21-9.95L238.21-9.95L238.21-9.95Q239.06-9.09 239.06-7.54L239.06-7.54L239.06-7.54Q239.06-6.62 238.75-5.44L238.75-5.44L238.33-5.00L233.08-4.52L233.08-4.52Q233.44-2.14 235.31-2.14zM235.31-8.65L235.31-8.65L235.31-8.65Q234.38-8.65 233.75-7.91L233.75-7.91L233.75-7.91Q233.12-7.16 233.02-6.01L233.02-6.01L236.59-6.45L236.59-6.45Q236.65-6.93 236.65-7.25L236.65-7.25L236.65-7.25Q236.65-8.65 235.31-8.65" fill="#1d0e0b" stroke="none" stroke-width="none" transform="translate(-146.37002563476562,6.203499383926392)" style="fill: rgb(119, 64, 35);"></path></g><g class="path" style="transform: scale(0.91); transform-origin: 102.165px 3.1035px; animation: 0.510204s linear -0.0526148s infinite normal forwards running breath-f8752b0a-b2cc-413b-9538-1eddd8eaa4ca;"><path d="M243.39 2.08L243.39 2.08L243.39 2.08Q243.39 0.23 246.83-0.82L246.83-0.82L246.83-0.82Q246.02-1.24 246.02-1.91L246.02-1.91L246.02-1.91Q246.02-2.18 246.23-2.46L246.23-2.46L246.23-2.46Q246.44-2.73 246.83-3.02L246.83-3.02L246.83-3.19L246.83-3.19Q245.32-3.19 244.43-4.03L244.43-4.03L244.43-4.03Q243.54-4.87 243.54-6.28L243.54-6.28L243.54-6.28Q243.54-8.11 245.03-9.46L245.03-9.46L245.03-9.46Q246.52-10.82 248.56-10.82L248.56-10.82L248.56-10.82Q249.08-10.82 250.09-10.61L250.09-10.61L250.09-10.61Q251.10-10.40 252.06-10.40L252.06-10.40L253.68-10.40L253.47-8.57L251.90-8.76L251.90-8.76Q252.11-8.15 252.11-7.37L252.11-7.37L252.11-7.37Q252.11-6.59 251.74-5.83L251.74-5.83L251.74-5.83Q251.37-5.06 250.86-4.60L250.86-4.60L250.86-4.60Q250.34-4.14 249.83-3.79L249.83-3.79L249.83-3.79Q249.31-3.44 248.94-3.18L248.94-3.18L248.94-3.18Q248.58-2.92 248.58-2.71L248.58-2.71L248.58-2.71Q248.58-2.31 249.42-2.02L249.42-2.02L249.42-2.02Q251.64-1.11 252.43-0.48L252.43-0.48L252.43-0.48Q253.22 0.15 253.22 1.07L253.22 1.07L253.22 1.07Q253.22 2.63 251.65 3.62L251.65 3.62L251.65 3.62Q250.09 4.62 247.93 4.62L247.93 4.62L247.93 4.62Q245.76 4.62 244.58 3.93L244.58 3.93L244.58 3.93Q243.39 3.23 243.39 2.08zM249.73-6.74L249.73-6.74L249.73-6.74Q249.73-7.77 249.27-8.25L249.27-8.25L249.27-8.25Q248.81-8.74 247.82-8.74L247.82-8.74L247.82-8.74Q245.91-8.74 245.91-6.86L245.91-6.86L245.91-6.86Q245.91-4.98 247.95-4.98L247.95-4.98L247.95-4.98Q249.73-4.98 249.73-6.74zM250.49 1.39L250.49 1.39L250.49 1.39Q250.49 1.01 250.09 0.68L250.09 0.68L250.09 0.68Q249.69 0.36 248.66-0.08L248.66-0.08L248.66-0.08Q247.13 0.34 246.55 0.69L246.55 0.69L246.55 0.69Q245.97 1.05 245.97 1.58L245.97 1.58L245.97 1.58Q245.97 2.10 246.55 2.43L246.55 2.43L246.55 2.43Q247.13 2.75 248.16 2.75L248.16 2.75L248.16 2.75Q249.19 2.75 249.84 2.37L249.84 2.37L249.84 2.37Q250.49 2.00 250.49 1.39" fill="#1d0e0b" stroke="none" stroke-width="none" transform="translate(-146.37002563476562,6.203499383926392)" style="fill: rgb(216, 140, 81);"></path></g><g class="path" style="transform: scale(0.91); transform-origin: 112.08px 0.8235px; animation: 0.510204s linear -0.0420918s infinite normal forwards running breath-f8752b0a-b2cc-413b-9538-1eddd8eaa4ca;"><path d="M256.89 0L256.89 0Q255.65 0 254.87-0.79L254.87-0.79L254.87-0.79Q254.08-1.58 254.08-2.91L254.08-2.91L254.08-2.91Q254.08-4.24 255.30-5.22L255.30-5.22L255.30-5.22Q256.52-6.20 258.26-6.20L258.26-6.20L259.69-6.20L259.69-6.55L259.69-6.55Q259.69-7.58 259.27-7.96L259.27-7.96L259.27-7.96Q258.85-8.34 257.69-8.34L257.69-8.34L257.69-8.34Q257.21-8.34 256.55-8.14L256.55-8.14L256.55-8.14Q255.89-7.94 255.07-7.52L255.07-7.52L254.46-9.18L254.46-9.18Q255.36-9.81 256.65-10.31L256.65-10.31L256.65-10.31Q257.94-10.82 258.78-10.82L258.78-10.82L258.78-10.82Q262.08-10.82 262.08-7.62L262.08-7.62L262.08-3.51L262.08-3.51Q262.08-2.33 262.82-0.88L262.82-0.88L260.59 0.06L260.59 0.06Q260.06-0.95 259.81-1.74L259.81-1.74L259.81-1.74Q258.66 0 256.89 0L256.89 0zM257.78-2.14L257.78-2.14L257.78-2.14Q258.62-2.14 259.69-3.00L259.69-3.00L259.69-4.41L259.69-4.41Q258.57-4.66 257.88-4.66L257.88-4.66L257.88-4.66Q256.56-4.66 256.56-3.49L256.56-3.49L256.56-3.49Q256.56-2.88 256.89-2.51L256.89-2.51L256.89-2.51Q257.23-2.14 257.78-2.14" fill="#1d0e0b" stroke="none" stroke-width="none" transform="translate(-146.37002563476562,6.203499383926392)" style="fill: rgb(29, 14, 11);"></path></g><g class="path" style="transform: scale(0.91); transform-origin: 125.435px 0.913499px; animation: 0.510204s linear -0.0315689s infinite normal forwards running breath-f8752b0a-b2cc-413b-9538-1eddd8eaa4ca;"><path d="M270.73-5.31L270.73-5.31Q270.73-6.76 270.48-7.25L270.48-7.25L270.48-7.25Q270.23-7.73 269.30-7.73L269.30-7.73L269.30-7.73Q268.38-7.73 267.20-6.99L267.20-6.99L267.20-5.46L267.44-0.53L264.62 0L264.87-5.10L264.87-5.10Q264.79-7.92 264.41-10.14L264.41-10.14L266.95-10.69L266.95-10.69Q267.10-9.47 267.16-8.32L267.16-8.32L267.16-8.32Q267.48-8.74 267.88-9.15L267.88-9.15L267.88-9.15Q268.28-9.55 269.14-10.07L269.14-10.07L269.14-10.07Q270.00-10.58 270.88-10.58L270.88-10.58L270.88-10.58Q271.76-10.58 272.37-10.02L272.37-10.02L272.37-10.02Q272.98-9.45 273.15-8.46L273.15-8.46L273.15-8.46Q274.89-10.58 276.68-10.58L276.68-10.58L276.68-10.58Q277.79-10.58 278.44-9.84L278.44-9.84L278.44-9.84Q279.09-9.09 279.09-7.81L279.09-7.81L278.96-5.46L279.20-0.42L276.36 0.11L276.61-5.31L276.61-5.31Q276.61-6.76 276.36-7.25L276.36-7.25L276.36-7.25Q276.11-7.73 275.21-7.73L275.21-7.73L275.21-7.73Q274.30-7.73 273.17-7.04L273.17-7.04L273.08-5.46L273.32-0.42L270.48 0.11L270.73-5.31" fill="#1d0e0b" stroke="none" stroke-width="none" transform="translate(-146.37002563476562,6.203499383926392)" style="fill: rgb(119, 64, 35);"></path></g><g class="path" style="transform: scale(0.91); transform-origin: 138.565px 0.908499px; animation: 0.510204s linear -0.0210459s infinite normal forwards running breath-f8752b0a-b2cc-413b-9538-1eddd8eaa4ca;"><path d="M285.29-2.14L285.29-2.14L285.29-2.14Q285.89-2.14 286.57-2.46L286.57-2.46L286.57-2.46Q287.24-2.77 287.62-3.09L287.62-3.09L287.99-3.40L288.96-2.23L288.96-2.23Q288.75-1.87 288.31-1.41L288.31-1.41L288.31-1.41Q287.87-0.95 287.42-0.62L287.42-0.62L287.42-0.62Q286.97-0.29 286.22-0.03L286.22-0.03L286.22-0.03Q285.47 0.23 284.68 0.23L284.68 0.23L284.68 0.23Q282.98 0.23 281.90-1.06L281.90-1.06L281.90-1.06Q280.83-2.35 280.83-4.39L280.83-4.39L280.83-4.39Q280.83-6.95 282.32-8.88L282.32-8.88L282.32-8.88Q283.82-10.82 285.81-10.82L285.81-10.82L285.81-10.82Q287.34-10.82 288.19-9.95L288.19-9.95L288.19-9.95Q289.04-9.09 289.04-7.54L289.04-7.54L289.04-7.54Q289.04-6.62 288.73-5.44L288.73-5.44L288.31-5.00L283.06-4.52L283.06-4.52Q283.42-2.14 285.29-2.14zM285.29-8.65L285.29-8.65L285.29-8.65Q284.36-8.65 283.73-7.91L283.73-7.91L283.73-7.91Q283.10-7.16 283.00-6.01L283.00-6.01L286.57-6.45L286.57-6.45Q286.63-6.93 286.63-7.25L286.63-7.25L286.63-7.25Q286.63-8.65 285.29-8.65" fill="#1d0e0b" stroke="none" stroke-width="none" transform="translate(-146.37002563476562,6.203499383926392)" style="fill: rgb(216, 140, 81);"></path></g><g class="path" style="transform: scale(0.91); transform-origin: 145.645px 4.7135px; animation: 0.510204s linear -0.010523s infinite normal forwards running breath-f8752b0a-b2cc-413b-9538-1eddd8eaa4ca;"><path d="M290.49-1.38L290.49-1.38L290.49-1.38Q290.49-2.08 291.00-2.59L291.00-2.59L291.00-2.59Q291.50-3.11 292.17-3.11L292.17-3.11L292.17-3.11Q292.85-3.11 293.19-2.74L293.19-2.74L293.19-2.74Q293.54-2.37 293.54-1.66L293.54-1.66L293.54-1.66Q293.54-0.95 293.06-0.41L293.06-0.41L293.06-0.41Q292.57 0.13 291.91 0.13L291.91 0.13L291.91 0.13Q291.25 0.13 290.87-0.27L290.87-0.27L290.87-0.27Q290.49-0.67 290.49-1.38" fill="#1d0e0b" stroke="none" stroke-width="none" transform="translate(-146.37002563476562,6.203499383926392)" style="fill: rgb(29, 14, 11);"></path></g><g class="path" style="transform: scale(0.91); transform-origin: 146.465px -3.6965px; animation: 0.510204s linear 0s infinite normal forwards running breath-f8752b0a-b2cc-413b-9538-1eddd8eaa4ca;"><path d="M291.25-14.18L294.42-14.70L293.24-5.40L291.25-5.10L291.25-14.18" fill="#1d0e0b" stroke="none" stroke-width="none" transform="translate(-146.37002563476562,6.203499383926392)" style="fill: rgb(119, 64, 35);"></path></g></g>
</g>
</g>
<style id="breath-f8752b0a-b2cc-413b-9538-1eddd8eaa4ca" data-anikit="">@keyframes breath-f8752b0a-b2cc-413b-9538-1eddd8eaa4ca
{
  0% {
    animation-timing-function: cubic-bezier(0.9647,0.2413,-0.0705,0.7911);
    transform: scale(0.9099999999999999);
  }
  51% {
    animation-timing-function: cubic-bezier(0.9226,0.2631,-0.0308,0.7628);
    transform: scale(1.02994);
  }
  100% {
    transform: scale(0.9099999999999999);
  }
}</style></svg>